<svg width="20" height="20" viewBox="0 0 20 20" fill="none" xmlns="http://www.w3.org/2000/svg">
<path fill-rule="evenodd" clip-rule="evenodd" d="M20 10C20 15.5228 15.5228 20 10 20C4.47715 20 0 15.5228 0 10C0 4.47715 4.47715 0 10 0C15.5228 0 20 4.47715 20 10ZM6.06532 9.6827C5.9221 9.43463 6.04467 9.09711 6.3399 8.92666L7.33032 8.35484L5.53771 5.24995C5.24202 4.73781 5.50189 4.02228 6.12091 3.66489C6.73992 3.3075 7.48 3.44571 7.77569 3.95786L9.5683 7.06275L10.5682 6.48543C10.8635 6.31498 11.2171 6.37758 11.3603 6.62565L12.0718 7.85801C12.215 8.10608 12.0924 8.44359 11.7972 8.61404L7.55933 11.0608C7.2641 11.2312 6.91052 11.1686 6.7673 10.9205L6.06532 9.6827ZM14.0169 16.5484L14.0469 15.3549L10.7399 9.62698L8.9749 10.646L12.2819 16.3739L13.3305 16.9447C13.4456 17.0081 13.6165 16.9872 13.7636 16.9023C13.9107 16.8173 14.0105 16.6732 14.0169 16.5484Z" fill="white"/>
</svg>
